<?xml version="1.0" standalone="no"?>
<!DOCTYPE svg PUBLIC "-//W3C//DTD SVG 20010904//EN"
 "http://www.w3.org/TR/2001/REC-SVG-20010904/DTD/svg10.dtd">
<svg version="1.0" xmlns="http://www.w3.org/2000/svg"
 width="1843.000000pt" height="1843.000000pt" viewBox="0 0 1843.000000 1843.000000"
 preserveAspectRatio="xMidYMid meet">

<g transform="translate(0.000000,1843.000000) scale(0.100000,-0.100000)"
fill="#000000" stroke="none">
<path d="M8629 17729 c-320 -380 -587 -693 -593 -695 -6 -2 -108 -17 -226 -34
-1576 -227 -3037 -866 -4283 -1873 -471 -381 -961 -865 -1357 -1342 -1047
-1261 -1810 -2836 -2120 -4373 -22 -108 -40 -213 -40 -233 0 -19 18 -123 39
-230 275 -1364 894 -2732 1769 -3909 951 -1278 2156 -2272 3522 -2904 794
-367 1619 -609 2514 -736 163 -24 214 -35 226 -48 8 -10 266 -316 573 -680
307 -364 560 -662 562 -662 2 0 255 298 562 662 307 364 565 670 573 680 12
13 63 24 226 48 881 125 1708 366 2484 722 1380 633 2596 1632 3552 2918 877
1179 1501 2562 1772 3924 20 99 36 196 36 215 0 50 -70 393 -125 613 -494
1975 -1649 3848 -3185 5163 -1292 1107 -2825 1805 -4490 2045 -118 17 -220 32
-226 34 -6 2 -273 315 -593 695 -320 380 -584 691 -586 691 -2 0 -266 -311
-586 -691z m-1096 -4805 c56 -48 204 -119 302 -145 44 -11 122 -23 173 -26
l92 -6 0 -204 0 -205 -66 60 c-80 72 -186 134 -308 180 -78 30 -107 35 -201
40 -87 4 -124 1 -170 -13 -167 -48 -319 -173 -394 -325 -23 -47 -48 -118 -57
-158 -14 -70 -14 -78 6 -150 61 -223 221 -401 419 -469 87 -30 235 -31 343 -4
140 36 297 130 390 235 l37 41 1 -252 0 -251 -57 5 c-51 4 -79 -2 -233 -52
-174 -57 -176 -58 -321 -62 -125 -5 -157 -2 -230 16 -326 81 -606 387 -725
793 l-23 78 31 91 c40 119 122 279 195 381 189 262 461 430 711 437 37 1 51
-5 85 -35z m-3526 -46 c-77 -95 -72 -54 -75 -633 -2 -286 0 -534 3 -552 3 -18
17 -45 30 -61 23 -27 23 -31 10 -73 -48 -157 -138 -269 -294 -364 -32 -19 -61
-35 -64 -35 -4 0 -8 354 -9 788 -3 598 -7 796 -16 825 -7 21 -33 62 -58 92
l-44 55 276 0 275 0 -34 -42z m979 -539 l339 -581 3 581 2 581 237 0 237 0
-54 -52 c-29 -29 -64 -75 -77 -103 l-23 -50 0 -779 0 -778 -102 4 c-94 3 -109
7 -168 38 -133 71 -167 116 -465 625 -148 253 -275 469 -282 480 -11 17 -13
-57 -11 -470 3 -559 -3 -515 96 -617 l56 -58 -314 0 -314 0 56 58 c101 103 93
34 96 796 3 785 8 742 -93 843 l-63 63 253 0 253 0 338 -581z m1439 540 c-20
-23 -47 -62 -59 -88 -20 -45 -21 -60 -24 -539 -4 -521 0 -577 40 -620 20 -21
21 -26 10 -70 -25 -96 -72 -174 -151 -252 -68 -66 -151 -126 -203 -145 -16 -7
-18 41 -20 797 -3 897 3 819 -75 916 l-34 42 276 0 277 0 -37 -41z m2366 -7
c-72 -86 -71 -72 -71 -659 0 -549 0 -556 44 -592 13 -11 13 -18 -1 -64 -41
-140 -156 -280 -293 -360 l-65 -37 -6 787 c-4 587 -8 798 -18 826 -7 21 -32
62 -57 92 l-44 55 275 0 276 0 -40 -48z m2812 -104 c-24 -84 -53 -184 -64
-222 l-21 -68 -31 30 c-61 59 -117 76 -264 80 l-133 4 0 -439 c0 -255 4 -452
10 -472 5 -19 19 -44 30 -57 l21 -22 -25 -72 c-46 -133 -129 -234 -266 -322
-41 -26 -78 -48 -82 -48 -5 0 -8 322 -8 716 l0 716 -137 -4 c-126 -3 -143 -5
-194 -30 -30 -15 -66 -39 -79 -53 l-24 -25 -63 212 c-34 117 -62 216 -63 221
0 4 324 7 719 7 l719 0 -45 -152z m613 97 c-25 -30 -51 -74 -58 -97 -10 -33
-13 -166 -13 -558 0 -464 2 -518 17 -546 9 -17 23 -36 32 -43 13 -11 13 -18
-1 -64 -29 -98 -73 -169 -152 -247 -67 -66 -150 -126 -203 -146 -17 -6 -18 35
-18 777 0 529 -4 797 -11 824 -6 22 -31 66 -55 98 l-44 57 275 0 275 0 -44
-55z m644 50 c0 -3 -8 -22 -19 -43 -26 -53 -33 -118 -18 -187 12 -57 266 -685
277 -685 3 0 65 145 139 323 129 312 134 325 139 408 4 73 1 93 -17 134 -12
26 -20 50 -18 52 2 2 126 2 275 1 l271 -3 -45 -60 c-76 -100 -147 -260 -449
-1002 -160 -392 -292 -713 -295 -713 -3 0 -52 116 -109 258 -220 544 -208 516
-254 549 -50 36 -141 85 -188 102 l-34 13 78 28 c43 15 83 32 88 37 6 6 -25
95 -82 233 -124 305 -169 392 -278 541 -13 18 -5 19 263 19 152 0 276 -2 276
-5z m1605 -81 c24 -13 65 -27 91 -30 l49 -6 73 -207 c130 -365 124 -351 195
-408 72 -58 110 -80 187 -104 44 -14 51 -19 35 -24 -49 -18 -128 -56 -155 -75
l-29 -21 45 -127 c25 -70 77 -219 116 -332 70 -207 89 -247 141 -307 l29 -33
-294 0 -295 0 -59 38 c-117 76 -218 220 -249 357 -9 37 -14 69 -12 71 2 2 20
-16 40 -40 55 -66 129 -98 245 -104 50 -3 92 -1 92 4 0 4 -57 165 -127 357
-90 245 -130 343 -135 330 -32 -76 -296 -766 -320 -834 -31 -91 -31 -91 10
-171 2 -5 -105 -8 -238 -8 l-242 0 31 35 c42 48 71 107 140 288 126 327 515
1341 541 1412 l11 29 21 -32 c11 -18 40 -44 63 -58z m-4905 56 c19 -36 77 -71
140 -84 l62 -12 99 -275 c97 -269 100 -275 146 -317 60 -54 119 -89 196 -117
l59 -22 -96 -47 c-53 -25 -96 -50 -96 -55 0 -5 24 -75 53 -157 30 -82 78 -221
107 -309 61 -184 87 -240 137 -295 l35 -40 -291 0 c-335 0 -324 -2 -430 95
-95 88 -167 217 -186 335 l-8 45 46 -51 c64 -71 125 -96 246 -102 77 -4 93 -2
89 9 -80 233 -255 694 -259 686 -4 -7 -66 -167 -139 -357 -72 -190 -144 -374
-159 -410 -16 -36 -34 -88 -41 -116 -12 -48 -12 -55 8 -93 l22 -41 -240 0
-240 0 37 48 c56 73 41 35 566 1409 62 161 115 293 119 293 4 0 12 -9 18 -20z
m-1890 -2318 c0 -13 -298 -953 -304 -959 -3 -3 -38 8 -78 25 -180 74 -259 82
-825 82 l-483 0 -2 -2125 -3 -2124 -110 74 c-458 311 -762 661 -881 1015 l-29
85 -3 535 c-3 608 7 542 -102 615 -98 65 -253 139 -389 186 -67 23 -120 43
-119 44 2 1 46 19 98 40 130 51 350 164 435 222 l70 48 3 693 2 692 -433 0
c-481 0 -523 -4 -742 -67 -220 -63 -423 -179 -505 -288 l-35 -47 -3 51 c-2 28
4 106 13 173 50 385 172 716 358 971 l49 67 2009 0 c1105 0 2009 -4 2009 -8z
m5610 -18 c361 -62 702 -252 990 -550 301 -312 537 -730 715 -1269 57 -172
161 -574 171 -660 4 -36 -3 -89 -26 -193 -282 -1282 -890 -2105 -1715 -2322
-165 -43 -256 -53 -433 -47 -243 8 -433 60 -672 183 -546 281 -962 849 -1228
1674 -51 158 -128 451 -157 596 l-16 81 31 139 c275 1245 839 2048 1621 2308
248 82 477 102 719 60z m-4925 -100 c45 -21 80 -29 140 -32 76 -4 87 -1 205
43 69 26 179 59 245 73 108 23 142 26 335 26 223 0 306 -9 483 -54 447 -115
790 -371 958 -715 161 -330 154 -765 -19 -1110 -120 -240 -305 -448 -782 -876
-463 -416 -676 -668 -830 -983 -54 -111 -118 -283 -135 -363 l-7 -33 420 0
c231 0 466 5 523 11 401 41 701 166 932 388 48 46 87 81 87 79 0 -20 -117
-664 -146 -798 -44 -211 -71 -269 -173 -370 -105 -103 -238 -179 -377 -215
-51 -13 -231 -15 -1363 -15 l-1304 0 6 163 c22 593 196 1112 519 1549 188 255
354 422 868 874 239 210 453 429 542 554 86 121 170 289 204 408 66 235 -6
400 -221 503 -135 65 -185 74 -395 73 -174 0 -192 -2 -300 -31 -287 -78 -522
-216 -746 -438 -171 -169 -304 -353 -414 -574 -22 -45 -43 -81 -46 -78 -8 7
15 361 31 484 44 334 137 680 262 972 81 189 209 432 295 559 l29 42 57 -44
c31 -25 84 -57 117 -72z"/>
<path d="M12866 9634 c-378 -91 -662 -519 -758 -1139 -29 -189 -36 -578 -14
-784 65 -609 296 -1047 641 -1213 422 -202 879 74 1084 656 178 503 183 1225
12 1735 -160 478 -466 763 -816 760 -49 0 -117 -7 -149 -15z m460 -1096 l283
-163 -2 -334 -2 -333 -284 -164 c-155 -90 -286 -162 -290 -160 -3 1 -133 76
-289 166 l-282 162 2 331 3 331 280 162 c154 90 284 163 289 163 5 1 136 -72
292 -161z"/>
</g>
</svg>
